<svg width="775" height="137" viewBox="0 0 775 137" fill="none" xmlns="http://www.w3.org/2000/svg">
<path d="M657.95 131.65V129.95H663.23V130.69C663.23 131.11 663.31 131.4 663.47 131.57C663.62 131.74 663.91 131.81 664.34 131.81H669.37C669.79 131.81 670.08 131.73 670.25 131.57C670.41 131.42 670.48 131.12 670.48 130.69V130.06C670.48 129.64 670.41 129.35 670.26 129.21C670.11 129.07 669.81 128.97 669.37 128.95L662.22 128.32C660.8 128.18 659.78 127.82 659.15 127.23C658.53 126.64 658.22 125.67 658.22 124.32V121.94C658.22 120.56 658.54 119.54 659.2 118.9C659.85 118.26 660.86 117.94 662.22 117.94H671.6C672.97 117.94 673.97 118.26 674.63 118.9C675.28 119.54 675.6 120.56 675.6 121.94V123.39H670.33V122.89C670.33 122.47 670.25 122.18 670.09 122.01C669.93 121.86 669.65 121.77 669.21 121.77H664.8C664.39 121.77 664.09 121.85 663.93 122.01C663.76 122.16 663.69 122.47 663.69 122.89V123.22C663.69 123.62 663.77 123.9 663.93 124.06C664.08 124.21 664.37 124.31 664.8 124.34L671.95 124.97C673.37 125.08 674.39 125.44 675.02 126.03C675.65 126.62 675.95 127.59 675.95 128.96V131.66C675.95 133.04 675.63 134.05 674.98 134.7C674.32 135.34 673.32 135.66 671.95 135.66H661.96C660.59 135.66 659.59 135.34 658.93 134.7C658.27 134.06 657.95 133.04 657.95 131.66V131.65Z" fill="white"/>
<path d="M680.68 135.64V130.07H686.67V135.64H680.68Z" fill="white"/>
<path d="M719.75 135.64H713.82L710.28 129.94H707.24V135.64H701.77V117.94H714.38C716 117.94 717.17 118.3 717.91 119.03C718.63 119.75 719 120.92 719 122.54V124.94C719 126.32 718.75 127.38 718.23 128.09C717.71 128.8 716.9 129.26 715.79 129.44L719.77 135.64H719.75ZM707.24 121.97V126.06H712.15C712.68 126.06 713.03 125.96 713.22 125.77C713.42 125.58 713.51 125.21 713.51 124.7V123.34C713.51 122.81 713.42 122.46 713.22 122.27C713.03 122.08 712.66 121.98 712.15 121.98H707.24V121.97Z" fill="white"/>
<path d="M723.91 135.64V130.07H729.89V135.64H723.91Z" fill="white"/>
<path d="M749.9 135.64C748.16 135.64 746.88 135.22 746.04 134.4C745.2 133.58 744.78 132.28 744.78 130.53V123.04C744.78 121.29 745.2 119.99 746.04 119.17C746.88 118.35 748.16 117.93 749.9 117.93H758.16C759.91 117.93 761.19 118.35 762.03 119.17C762.87 119.99 763.28 121.29 763.28 123.04V130.53C763.28 132.28 762.87 133.58 762.03 134.4C761.19 135.22 759.91 135.64 758.16 135.64H749.9ZM751.88 131.02H756.2C756.78 131.02 757.2 130.91 757.45 130.67C757.69 130.43 757.81 130.01 757.81 129.4V124.19C757.81 123.58 757.69 123.16 757.45 122.92C757.2 122.68 756.78 122.57 756.2 122.57H751.88C751.27 122.57 750.85 122.68 750.61 122.92C750.38 123.16 750.27 123.57 750.27 124.19V129.4C750.27 130.01 750.38 130.43 750.61 130.67C750.85 130.91 751.27 131.02 751.88 131.02Z" fill="white"/>
<path d="M768.01 135.64V130.07H774V135.64H768.01Z" fill="white"/>
<path d="M77.74 0.590088H42.87L1.02002 100.02H33.48L39.03 84.5401H79.87L85.42 100.02H112.53V83.5401L77.74 0.590088ZM46.7 63.3801L59.51 28.1501L72.18 63.3801H46.7Z" fill="white"/>
<path d="M122.41 100.02V0.590088H193.29C202.4 0.590088 208.99 2.62009 213.07 6.70009C217.14 10.7701 219.19 17.3501 219.19 26.4501V45.7701C219.19 54.8601 217.15 61.4401 213.07 65.5201C208.98 69.6001 202.4 71.6301 193.29 71.6301H153.16V100.04H122.41V100.02ZM153.17 49.0401H180.78C183.72 49.0401 185.73 48.5001 186.82 47.4101C187.91 46.3201 188.45 44.3001 188.45 41.3801V32.0101C188.45 29.0701 187.91 27.0701 186.82 25.9801C185.73 24.8901 183.71 24.3501 180.78 24.3501H153.17V49.0701V49.0401Z" fill="white"/>
<path d="M225.47 100.02V78.8501L278.56 26.5701H228.32V0.570068H323.28V21.6301L270.09 74.0001H323.18V100H225.47V100.02Z" fill="white"/>
<path d="M329.91 37.9601H370.08V62.6801H329.91V37.9601Z" fill="white"/>
<path d="M649.74 100.02L644.19 84.5301H603.35L597.8 100.02H565.35L607.19 0.590088H642.06L683.76 100.02H649.74ZM611.04 63.3801H636.52L623.85 28.1501L611.04 63.3801Z" fill="white"/>
<path d="M739.4 0.590088H771.42L729.16 100.02H699.27L657 0.590088H690.59L715.06 64.5101L739.4 0.590088Z" fill="white"/>
<path d="M490.06 0.590088V27.7201H521.22V90.0301C521.22 91.0701 521.01 92.0901 520.61 93.0401L517.67 100.02H521.22H551.96V27.7201H581.77L593.19 0.590088H490.06Z" fill="white"/>
<path d="M477.82 45.9401C474.32 42.6201 468.57 40.6501 460.6 39.9801L420.47 36.4301C418.1 36.2501 416.47 35.7301 415.56 34.8701C414.66 34.0201 414.21 32.4401 414.21 30.1601V28.3101C414.21 25.9401 414.66 24.3001 415.56 23.3901C416.47 22.5001 418.1 22.0401 420.47 22.0401H453.99V27.7201H481.11V0.600098H405.96C398.28 0.600098 392.61 2.4101 388.96 6.0001C385.3 9.6101 383.47 15.2901 383.47 23.0401V36.4001C383.47 43.9701 385.22 49.4201 388.73 52.7301C392.23 56.0601 397.98 58.1001 405.95 58.8501L446.08 62.4001C448.55 62.5901 450.21 63.0801 451.06 63.8901C451.91 64.7001 452.34 66.2801 452.34 68.6501V72.2001C452.34 74.5701 451.9 76.2001 450.99 77.1001C450.08 78.0101 448.45 78.4501 446.08 78.4501H417.89C415.52 78.4501 413.89 78.0101 412.98 77.1001C412.33 76.4501 411.92 75.4201 411.74 74.0101H382.02V77.5901V77.5501C382.03 85.3201 383.86 91.0001 387.52 94.5901C391.17 98.2001 396.84 100 404.53 100H460.6C468.29 100 473.96 98.2001 477.61 94.6101C481.27 91.0201 483.1 85.3301 483.1 77.5801V62.4001C483.1 54.7401 481.32 49.2501 477.82 45.9401Z" fill="white"/>
</svg>
