<svg width="775" height="137" viewBox="0 0 775 137" fill="none" xmlns="http://www.w3.org/2000/svg">
<path d="M657.95 131.65V129.95H663.23V130.69C663.23 131.11 663.31 131.4 663.47 131.57C663.62 131.74 663.91 131.81 664.34 131.81H669.37C669.79 131.81 670.08 131.73 670.25 131.57C670.41 131.42 670.48 131.12 670.48 130.69V130.06C670.48 129.64 670.41 129.35 670.26 129.21C670.11 129.07 669.81 128.97 669.37 128.95L662.22 128.32C660.8 128.18 659.78 127.82 659.15 127.23C658.53 126.64 658.22 125.67 658.22 124.32V121.94C658.22 120.56 658.54 119.54 659.2 118.9C659.85 118.26 660.86 117.94 662.22 117.94H671.6C672.97 117.94 673.97 118.26 674.63 118.9C675.28 119.54 675.6 120.56 675.6 121.94V123.39H670.33V122.89C670.33 122.47 670.25 122.18 670.09 122.01C669.93 121.86 669.65 121.77 669.21 121.77H664.8C664.39 121.77 664.09 121.85 663.93 122.01C663.76 122.16 663.69 122.47 663.69 122.89V123.22C663.69 123.62 663.77 123.9 663.93 124.06C664.08 124.21 664.37 124.31 664.8 124.34L671.95 124.97C673.37 125.08 674.39 125.44 675.02 126.03C675.65 126.62 675.95 127.59 675.95 128.96V131.66C675.95 133.04 675.63 134.05 674.98 134.7C674.32 135.34 673.32 135.66 671.95 135.66H661.96C660.59 135.66 659.59 135.34 658.93 134.7C658.27 134.06 657.95 133.04 657.95 131.66V131.65Z" fill="#00409D"/>
<path d="M680.68 135.64V130.07H686.67V135.64H680.68Z" fill="#00409D"/>
<path d="M719.75 135.64H713.82L710.28 129.94H707.24V135.64H701.77V117.94H714.38C716 117.94 717.17 118.3 717.91 119.03C718.63 119.75 719 120.92 719 122.54V124.94C719 126.32 718.75 127.38 718.23 128.09C717.71 128.8 716.9 129.26 715.79 129.44L719.77 135.64H719.75ZM707.24 121.97V126.06H712.15C712.68 126.06 713.03 125.96 713.22 125.77C713.42 125.58 713.51 125.21 713.51 124.7V123.34C713.51 122.81 713.42 122.46 713.22 122.27C713.03 122.08 712.66 121.98 712.15 121.98H707.24V121.97Z" fill="#00409D"/>
<path d="M723.91 135.64V130.07H729.89V135.64H723.91Z" fill="#00409D"/>
<path d="M749.9 135.64C748.16 135.64 746.88 135.22 746.04 134.4C745.2 133.58 744.78 132.28 744.78 130.53V123.04C744.78 121.29 745.2 119.99 746.04 119.17C746.88 118.35 748.16 117.93 749.9 117.93H758.16C759.91 117.93 761.19 118.35 762.03 119.17C762.87 119.99 763.28 121.29 763.28 123.04V130.53C763.28 132.28 762.87 133.58 762.03 134.4C761.19 135.22 759.91 135.64 758.16 135.64H749.9ZM751.88 131.02H756.2C756.78 131.02 757.2 130.91 757.45 130.67C757.69 130.43 757.81 130.01 757.81 129.4V124.19C757.81 123.58 757.69 123.16 757.45 122.92C757.2 122.68 756.78 122.57 756.2 122.57H751.88C751.27 122.57 750.85 122.68 750.61 122.92C750.38 123.16 750.27 123.57 750.27 124.19V129.4C750.27 130.01 750.38 130.43 750.61 130.67C750.85 130.91 751.27 131.02 751.88 131.02Z" fill="#00409D"/>
<path d="M768.01 135.64V130.07H774V135.64H768.01Z" fill="#00409D"/>
<path d="M77.74 0.589996H42.87L1.02002 100.02H33.48L39.03 84.54H79.87L85.42 100.02H112.53V83.54L77.74 0.589996ZM46.7 63.38L59.51 28.15L72.18 63.38H46.7Z" fill="#00409D"/>
<path d="M122.41 100.02V0.589996H193.29C202.4 0.589996 208.99 2.62 213.07 6.7C217.14 10.77 219.19 17.35 219.19 26.45V45.77C219.19 54.86 217.15 61.44 213.07 65.52C208.98 69.6 202.4 71.63 193.29 71.63H153.16V100.04H122.41V100.02ZM153.17 49.04H180.78C183.72 49.04 185.73 48.5 186.82 47.41C187.91 46.32 188.45 44.3 188.45 41.38V32.01C188.45 29.07 187.91 27.07 186.82 25.98C185.73 24.89 183.71 24.35 180.78 24.35H153.17V49.07V49.04Z" fill="#00409D"/>
<path d="M225.47 100.02V78.85L278.56 26.57H228.32V0.570007H323.28V21.63L270.09 74H323.18V100H225.47V100.02Z" fill="#00409D"/>
<path d="M329.91 37.96H370.08V62.68H329.91V37.96Z" fill="#00409D"/>
<path d="M649.74 100.02L644.19 84.53H603.35L597.8 100.02H565.35L607.19 0.589996H642.06L683.76 100.02H649.74ZM611.04 63.38H636.52L623.85 28.15L611.04 63.38Z" fill="#00409D"/>
<path d="M739.4 0.589996H771.42L729.16 100.02H699.27L657 0.589996H690.59L715.06 64.51L739.4 0.589996Z" fill="#00409D"/>
<path d="M490.06 0.589996V27.72H521.22V90.03C521.22 91.07 521.01 92.09 520.61 93.04L517.67 100.02H521.22H551.96V27.72H581.77L593.19 0.589996H490.06Z" fill="#00409D"/>
<path d="M477.82 45.94C474.32 42.62 468.57 40.65 460.6 39.98L420.47 36.43C418.1 36.25 416.47 35.73 415.56 34.87C414.66 34.02 414.21 32.44 414.21 30.16V28.31C414.21 25.94 414.66 24.3 415.56 23.39C416.47 22.5 418.1 22.04 420.47 22.04H453.99V27.72H481.11V0.600006H405.96C398.28 0.600006 392.61 2.41001 388.96 6.00001C385.3 9.61001 383.47 15.29 383.47 23.04V36.4C383.47 43.97 385.22 49.42 388.73 52.73C392.23 56.06 397.98 58.1 405.95 58.85L446.08 62.4C448.55 62.59 450.21 63.08 451.06 63.89C451.91 64.7 452.34 66.28 452.34 68.65V72.2C452.34 74.57 451.9 76.2 450.99 77.1C450.08 78.01 448.45 78.45 446.08 78.45H417.89C415.52 78.45 413.89 78.01 412.98 77.1C412.33 76.45 411.92 75.42 411.74 74.01H382.02V77.59V77.55C382.03 85.32 383.86 91 387.52 94.59C391.17 98.2 396.84 100 404.53 100H460.6C468.29 100 473.96 98.2 477.61 94.61C481.27 91.02 483.1 85.33 483.1 77.58V62.4C483.1 54.74 481.32 49.25 477.82 45.94Z" fill="#00409D"/>
</svg>
