<svg width="314" height="242" viewBox="0 0 314 242" fill="none" xmlns="http://www.w3.org/2000/svg">
<path d="M283.91 117.26V106.23H217.55C201.34 106.23 188.19 93.11 188.19 76.93V1H133.16V96.64C133.16 108.03 142.41 117.26 153.82 117.26H283.92H283.91Z" fill="white"/>
<path d="M283.91 139.32V128.29H151.47C135.26 128.29 122.11 115.17 122.11 98.99V1H67.0801V118.7C67.0801 130.09 76.3301 139.32 87.7401 139.32H283.9H283.91Z" fill="white"/>
<path d="M283.91 194.01V205.04H217.55C201.34 205.04 188.19 218.16 188.19 234.34V240.65H133.16V214.64C133.16 203.25 142.41 194.02 153.82 194.02H283.92H283.91V194.01Z" fill="white"/>
<path d="M283.91 171.95V182.98H151.47C135.26 182.98 122.11 196.1 122.11 212.28V240.65H67.0801V192.58C67.0801 181.19 76.3301 171.96 87.7401 171.96H283.9L283.91 171.95Z" fill="white"/>
<path d="M283.91 161.38V150.35H85.39C69.18 150.35 56.03 137.23 56.03 121.05V1H1V131.09C1 147.82 14.59 161.38 31.35 161.38H283.91Z" fill="white"/>
<path d="M244.34 1.01001C219.29 1.01001 198.98 21.27 198.98 46.28V78.68C198.98 87.82 206.39 95.21 215.53 95.21H267.36C276.5 95.21 283.91 87.82 283.91 78.68V37.25C283.91 29.15 287.2 21.81 292.52 16.5C297.85 11.19 305.2 7.91001 313.32 7.91001V1.01001H244.34ZM260.19 40.07C251.64 40.07 244.72 33.16 244.72 24.63C244.72 16.1 251.64 9.19001 260.19 9.19001C268.74 9.19001 275.66 16.11 275.66 24.63C275.66 33.15 268.73 40.07 260.19 40.07Z" fill="white"/>
<path d="M260.19 16.92C255.91 16.92 252.45 20.37 252.45 24.63C252.45 28.89 255.91 32.36 260.19 32.36C264.47 32.36 267.92 28.89 267.92 24.63C267.92 20.37 264.46 16.92 260.19 16.92Z" fill="white"/>
</svg>
