<svg width="1123" height="242" viewBox="0 0 1123 242" fill="none" xmlns="http://www.w3.org/2000/svg">
<path d="M283.91 117.26V106.23H217.55C201.34 106.23 188.19 93.11 188.19 76.93V1H133.16V96.64C133.16 108.03 142.41 117.26 153.82 117.26H283.92H283.91Z" fill="#00409D"/>
<path d="M283.91 139.32V128.29H151.47C135.26 128.29 122.11 115.17 122.11 98.99V1H67.08V118.7C67.08 130.09 76.33 139.32 87.74 139.32H283.9H283.91Z" fill="#00409D"/>
<path d="M283.91 194.01V205.04H217.55C201.34 205.04 188.19 218.16 188.19 234.34V240.65H133.16V214.64C133.16 203.25 142.41 194.02 153.82 194.02H283.92H283.91V194.01Z" fill="#00409D"/>
<path d="M283.91 171.95V182.98H151.47C135.26 182.98 122.11 196.1 122.11 212.28V240.65H67.08V192.58C67.08 181.19 76.33 171.96 87.74 171.96H283.9L283.91 171.95Z" fill="#00409D"/>
<path d="M283.91 161.38V150.35H85.39C69.18 150.35 56.03 137.23 56.03 121.05V1H1V131.09C1 147.82 14.59 161.38 31.35 161.38H283.91Z" fill="#00409D"/>
<path d="M244.34 1.01001C219.29 1.01001 198.98 21.27 198.98 46.28V78.68C198.98 87.82 206.39 95.21 215.53 95.21H267.36C276.5 95.21 283.91 87.82 283.91 78.68V37.25C283.91 29.15 287.2 21.81 292.52 16.5C297.85 11.19 305.2 7.91001 313.32 7.91001V1.01001H244.34ZM260.19 40.07C251.64 40.07 244.72 33.16 244.72 24.63C244.72 16.1 251.64 9.19001 260.19 9.19001C268.74 9.19001 275.66 16.11 275.66 24.63C275.66 33.15 268.73 40.07 260.19 40.07Z" fill="#00409D"/>
<path d="M260.19 16.92C255.91 16.92 252.45 20.37 252.45 24.63C252.45 28.89 255.91 32.36 260.19 32.36C264.47 32.36 267.92 28.89 267.92 24.63C267.92 20.37 264.46 16.92 260.19 16.92Z" fill="#00409D"/>
<path d="M364.27 7.92001H370V30.94H364.27V7.92001Z" fill="#00409D"/>
<path d="M392.28 7.92001H397.75V30.94H393.2L380.15 15.97V30.94H374.68V7.92001H379.47L392.29 22.63V7.92001H392.28Z" fill="#00409D"/>
<path d="M401.97 26.01V23.84H407.44V24.73C407.44 25.41 407.58 25.89 407.86 26.16C408.14 26.43 408.61 26.58 409.3 26.58H417.21C417.89 26.58 418.37 26.44 418.65 26.16C418.93 25.88 419.07 25.41 419.07 24.73V23.71C419.07 23.03 418.95 22.57 418.68 22.33C418.42 22.09 417.93 21.94 417.23 21.87L407.28 20.95C405.55 20.8 404.28 20.35 403.51 19.61C402.74 18.87 402.34 17.67 402.34 16V12.84C402.34 11.13 402.74 9.87 403.54 9.09C404.35 8.3 405.59 7.91 407.28 7.91H419.33C421.02 7.91 422.27 8.3 423.07 9.09C423.86 9.88 424.27 11.12 424.27 12.84V14.62H418.8V14.13C418.8 13.45 418.66 12.97 418.4 12.7C418.12 12.42 417.65 12.28 416.96 12.28H409.84C409.16 12.28 408.68 12.42 408.4 12.68C408.12 12.96 407.98 13.43 407.98 14.1V14.53C407.98 15.21 408.11 15.67 408.37 15.91C408.64 16.15 409.12 16.3 409.82 16.37L419.77 17.29C421.5 17.44 422.77 17.89 423.54 18.63C424.32 19.37 424.71 20.57 424.71 22.24V25.99C424.71 27.7 424.31 28.96 423.51 29.74C422.7 30.53 421.46 30.92 419.77 30.92H406.92C405.23 30.92 403.98 30.53 403.18 29.74C402.38 28.95 401.98 27.71 401.98 25.99H401.97V26.01Z" fill="#00409D"/>
<path d="M428.93 30.94V7.92001H444.95C446.97 7.92001 448.44 8.37001 449.33 9.26001C450.22 10.15 450.68 11.61 450.68 13.65V17.99C450.68 20.02 450.23 21.5 449.33 22.38C448.42 23.26 446.97 23.72 444.95 23.72H434.6V30.96H428.93V30.94ZM434.6 19.49H442.73C443.61 19.49 444.21 19.32 444.53 19C444.85 18.67 445.01 18.07 445.01 17.19V14.63C445.01 13.75 444.84 13.15 444.53 12.82C444.21 12.49 443.61 12.33 442.73 12.33H434.6V19.5V19.49Z" fill="#00409D"/>
<path d="M454.44 7.92001H460.17V30.94H454.44V7.92001Z" fill="#00409D"/>
<path d="M487.59 30.94H481.4L476.06 22.92H470.52V30.94H464.86V7.92001H480.88C482.9 7.92001 484.37 8.37001 485.26 9.26001C486.15 10.15 486.61 11.61 486.61 13.65V16.81C486.61 18.68 486.23 20.05 485.48 20.96C484.73 21.87 483.51 22.38 481.84 22.51L487.6 30.96L487.59 30.94ZM470.51 12.13V18.84H478.64C479.52 18.84 480.12 18.67 480.44 18.35C480.76 18.02 480.91 17.42 480.91 16.54V14.44C480.91 13.56 480.74 12.96 480.44 12.63C480.12 12.3 479.52 12.14 478.64 12.14H470.51V12.13Z" fill="#00409D"/>
<path d="M497.08 30.94C494.9 30.94 493.3 30.42 492.25 29.39C491.2 28.36 490.69 26.74 490.69 24.56V14.3C490.69 12.11 491.21 10.5 492.25 9.47001C493.3 8.44001 494.9 7.92001 497.08 7.92001H507.68C509.86 7.92001 511.46 8.44001 512.51 9.47001C513.56 10.5 514.07 12.12 514.07 14.3V24.56C514.07 26.75 513.55 28.36 512.51 29.39C511.46 30.42 509.86 30.94 507.68 30.94H497.08ZM499.06 26.14H505.72C506.72 26.14 507.44 25.93 507.83 25.53C508.22 25.13 508.42 24.43 508.42 23.44V15.42C508.42 14.43 508.22 13.74 507.83 13.33C507.44 12.93 506.73 12.72 505.72 12.72H499.06C498.07 12.72 497.37 12.93 496.97 13.33C496.57 13.73 496.36 14.43 496.36 15.42V23.44C496.36 24.43 496.56 25.12 496.97 25.53C497.37 25.93 498.07 26.14 499.06 26.14Z" fill="#00409D"/>
<path d="M535.53 7.92001H541.43L531.24 30.94H525.77L515.58 7.92001H521.78L528.67 24.7L535.52 7.92001H535.53Z" fill="#00409D"/>
<path d="M558.36 30.94L556.48 26.69H545.19L543.5 30.94H537.51L547.35 7.92001H554.07L564.26 30.94H558.36ZM546.86 22.49H554.6L550.71 12.83L546.86 22.49ZM557.09 2.39001L553.03 6.54001H548.75L551.46 2.39001H557.1H557.09Z" fill="#00409D"/>
<path d="M584.41 7.92001H589.88V30.94H585.33L572.28 15.97V30.94H566.81V7.92001H571.6L584.42 22.63V7.92001H584.41Z" fill="#00409D"/>
<path d="M594.55 7.92001H600.28V30.94H594.55V7.92001Z" fill="#00409D"/>
<path d="M615.68 30.94V7.92001H631.7C633.72 7.92001 635.19 8.37001 636.08 9.26001C636.97 10.15 637.43 11.61 637.43 13.65V17.99C637.43 20.02 636.98 21.5 636.08 22.38C635.17 23.26 633.72 23.72 631.7 23.72H621.35V30.96H615.69L615.68 30.94ZM621.34 19.49H629.48C630.36 19.49 630.96 19.32 631.28 19C631.6 18.67 631.75 18.07 631.75 17.19V14.63C631.75 13.75 631.58 13.15 631.28 12.82C630.96 12.49 630.36 12.33 629.48 12.33H621.34V19.5V19.49Z" fill="#00409D"/>
<path d="M663.76 30.94H657.56L652.22 22.92H646.68V30.94H641.02V7.92001H657.04C659.06 7.92001 660.53 8.37002 661.42 9.26002C662.31 10.15 662.77 11.61 662.77 13.65V16.81C662.77 18.68 662.39 20.05 661.64 20.96C660.89 21.87 659.67 22.38 658 22.51L663.76 30.96V30.94ZM654.42 6.54001H649.21L645.12 2.39001H649.01L651.81 4.42001L654.61 2.39001H658.5L654.41 6.54001H654.4H654.42ZM646.68 12.13V18.84H654.81C655.69 18.84 656.29 18.67 656.61 18.35C656.93 18.02 657.08 17.42 657.08 16.54V14.44C657.08 13.56 656.91 12.96 656.61 12.63C656.29 12.3 655.69 12.14 654.81 12.14H646.68V12.13Z" fill="#00409D"/>
<path d="M667.32 7.92001H673.06V30.94H667.32V7.92001ZM672.33 6.54001H668.05L670.76 2.39001H676.4L672.34 6.54001H672.33Z" fill="#00409D"/>
<path d="M700.47 30.94H694.27L688.93 22.92H683.39V30.94H677.72V7.92001H693.74C695.76 7.92001 697.23 8.37001 698.12 9.26001C699.01 10.15 699.47 11.61 699.47 13.65V16.81C699.47 18.68 699.09 20.05 698.34 20.96C697.59 21.87 696.37 22.38 694.7 22.51L700.46 30.96L700.47 30.94ZM683.39 12.13V18.84H691.53C692.41 18.84 693.01 18.67 693.33 18.35C693.65 18.02 693.81 17.42 693.81 16.54V14.44C693.81 13.56 693.64 12.96 693.33 12.63C693.01 12.3 692.41 12.14 691.53 12.14H683.39V12.13Z" fill="#00409D"/>
<path d="M709.96 30.94C707.78 30.94 706.18 30.42 705.13 29.39C704.08 28.36 703.57 26.74 703.57 24.56V14.3C703.57 12.11 704.09 10.5 705.13 9.47001C706.18 8.44001 707.78 7.92001 709.96 7.92001H720.56C722.74 7.92001 724.34 8.44001 725.39 9.47001C726.44 10.5 726.95 12.12 726.95 14.3V24.56C726.95 26.75 726.43 28.36 725.39 29.39C724.34 30.42 722.74 30.94 720.56 30.94H709.96ZM711.94 26.14H718.6C719.61 26.14 720.32 25.93 720.71 25.53C721.1 25.13 721.3 24.43 721.3 23.44V15.42C721.3 14.43 721.1 13.74 720.71 13.33C720.32 12.93 719.61 12.72 718.6 12.72H711.94C710.95 12.72 710.25 12.93 709.85 13.33C709.45 13.73 709.24 14.43 709.24 15.42V23.44C709.24 24.43 709.44 25.12 709.85 25.53C710.25 25.93 710.95 26.14 711.94 26.14Z" fill="#00409D"/>
<path d="M731.18 30.94V7.92001H746.33C748.9 7.92001 750.86 8.59001 752.22 9.93001C753.57 11.27 754.24 13.23 754.24 15.82V23.06C754.24 25.65 753.57 27.61 752.22 28.95C750.87 30.29 748.91 30.96 746.33 30.96H731.18V30.94ZM736.84 26.14H745.14C747.43 26.14 748.57 25 748.57 22.71V16.14C748.57 13.86 747.43 12.71 745.14 12.71H736.84V26.13V26.14Z" fill="#00409D"/>
<path d="M764.55 30.94C762.37 30.94 760.77 30.42 759.72 29.39C758.67 28.36 758.16 26.74 758.16 24.56V14.3C758.16 12.11 758.68 10.5 759.72 9.47001C760.77 8.44001 762.37 7.92001 764.55 7.92001H775.15C777.33 7.92001 778.93 8.44001 779.98 9.47001C781.03 10.5 781.54 12.12 781.54 14.3V24.56C781.54 26.75 781.02 28.36 779.98 29.39C778.93 30.42 777.33 30.94 775.15 30.94H764.55ZM766.53 26.14H773.19C774.2 26.14 774.91 25.93 775.3 25.53C775.69 25.13 775.89 24.43 775.89 23.44V15.42C775.89 14.43 775.7 13.74 775.3 13.33C774.91 12.93 774.2 12.72 773.19 12.72H766.53C765.54 12.72 764.84 12.93 764.44 13.33C764.04 13.73 763.83 14.43 763.83 15.42V23.44C763.83 24.43 764.03 25.12 764.44 25.53C764.84 25.93 765.54 26.14 766.53 26.14Z" fill="#00409D"/>
<path d="M791.97 30.94C789.79 30.94 788.19 30.42 787.14 29.39C786.09 28.36 785.58 26.74 785.58 24.56V7.92001H791.24V23.45C791.24 24.44 791.44 25.13 791.83 25.54C792.22 25.94 792.93 26.15 793.94 26.15H799.6C800.59 26.15 801.29 25.94 801.69 25.54C802.09 25.14 802.3 24.44 802.3 23.45V7.92001H807.96V24.56C807.96 26.75 807.44 28.36 806.4 29.39C805.35 30.42 803.75 30.94 801.57 30.94H791.94H791.95H791.97Z" fill="#00409D"/>
<path d="M812.47 36.2L814.38 30.94H812.27V25.02H818.6V27.58C818.6 29.07 818.31 30.42 817.71 31.62L815.8 36.1L812.47 36.2Z" fill="#00409D"/>
<path d="M363.81 62.23V60.06H369.28V60.95C369.28 61.63 369.42 62.11 369.68 62.38C369.96 62.66 370.43 62.8 371.12 62.8H379.03C379.71 62.8 380.19 62.66 380.47 62.38C380.75 62.1 380.89 61.63 380.89 60.95V59.93C380.89 59.25 380.76 58.79 380.5 58.55C380.23 58.31 379.75 58.16 379.05 58.09L369.1 57.17C367.37 57.02 366.1 56.57 365.32 55.83C364.54 55.09 364.15 53.89 364.15 52.22V49.06C364.15 47.35 364.55 46.09 365.35 45.31C366.15 44.53 367.4 44.13 369.09 44.13H381.14C382.83 44.13 384.08 44.52 384.88 45.31C385.68 46.1 386.08 47.34 386.08 49.06V50.84H380.61V50.35C380.61 49.67 380.47 49.19 380.21 48.92C379.93 48.64 379.46 48.5 378.77 48.5H371.65C370.97 48.5 370.49 48.64 370.21 48.9C369.93 49.18 369.81 49.65 369.81 50.32V50.75C369.81 51.43 369.94 51.89 370.2 52.13C370.46 52.37 370.95 52.52 371.65 52.59L381.6 53.51C383.33 53.66 384.6 54.11 385.37 54.85C386.15 55.59 386.54 56.79 386.54 58.46V62.21C386.54 63.92 386.14 65.18 385.34 65.96C384.53 66.75 383.29 67.14 381.6 67.14H368.75C367.06 67.14 365.81 66.75 365.01 65.96C364.21 65.17 363.81 63.93 363.81 62.21V62.23Z" fill="#00409D"/>
<path d="M410.54 44.14V49.14H402.56V67.16H396.89V49.14H388.92V44.14H410.53H410.54Z" fill="#00409D"/>
<path d="M428.07 67.16L426.19 62.91H414.9L413.21 67.16H407.22L417.06 44.14H423.79L433.98 67.16H428.08H428.07ZM416.57 58.71H424.31L420.42 49.05L416.57 58.71Z" fill="#00409D"/>
<path d="M449.72 44.14H455.62L445.43 67.16H439.96L429.77 44.14H435.96L442.85 60.92L449.7 44.14H449.72Z" fill="#00409D"/>
<path d="M458.58 44.14H464.31V67.16H458.58V44.14ZM463.59 42.76H459.31L462.02 38.61H467.66L463.6 42.76H463.59Z" fill="#00409D"/>
<path d="M490.81 44.14H495.36V67.16H490.09V53.28L483.66 63.14H480.74L474.28 53.2V67.15H469.01V44.13H473.99L482.42 57.4L490.82 44.13L490.81 44.14Z" fill="#00409D"/>
<path d="M505.55 62.5H519.59V67.17H499.89V44.15H519.27V48.82H505.55V53.19H517.94V57.47H505.55V62.5Z" fill="#00409D"/>
<path d="M533.89 67.16V44.14H549.91C551.93 44.14 553.4 44.59 554.29 45.48C555.18 46.37 555.64 47.83 555.64 49.87V54.21C555.64 56.24 555.19 57.72 554.29 58.6C553.39 59.48 551.93 59.94 549.91 59.94H539.56V67.18H533.9L533.89 67.16ZM539.55 55.71H547.69C548.57 55.71 549.17 55.54 549.49 55.22C549.81 54.89 549.96 54.29 549.96 53.41V50.85C549.96 49.97 549.79 49.37 549.49 49.04C549.17 48.71 548.57 48.55 547.69 48.55H539.55V55.72V55.71Z" fill="#00409D"/>
<path d="M581.97 67.16H575.77L570.43 59.14H564.89V67.16H559.23V44.14H575.25C577.27 44.14 578.74 44.59 579.63 45.48C580.52 46.37 580.98 47.83 580.98 49.87V53.03C580.98 54.9 580.6 56.27 579.85 57.18C579.1 58.09 577.88 58.6 576.21 58.73L581.97 67.18V67.16ZM564.89 48.35V55.06H573.02C573.9 55.06 574.5 54.89 574.82 54.57C575.14 54.24 575.29 53.64 575.29 52.76V50.66C575.29 49.78 575.12 49.18 574.82 48.85C574.5 48.52 573.9 48.36 573.02 48.36H564.89V48.35Z" fill="#00409D"/>
<path d="M591.45 67.16C589.27 67.16 587.67 66.64 586.62 65.61C585.57 64.58 585.06 62.96 585.06 60.78V50.52C585.06 48.33 585.58 46.72 586.62 45.69C587.67 44.66 589.27 44.14 591.45 44.14H602.05C604.23 44.14 605.83 44.66 606.88 45.69C607.93 46.72 608.44 48.34 608.44 50.52V60.78C608.44 62.97 607.92 64.58 606.88 65.61C605.83 66.64 604.23 67.16 602.05 67.16H591.45ZM593.44 62.37H600.1C601.11 62.37 601.82 62.16 602.21 61.76C602.6 61.36 602.8 60.66 602.8 59.67V51.65C602.8 50.66 602.6 49.96 602.21 49.56C601.82 49.16 601.11 48.95 600.1 48.95H593.44C592.45 48.95 591.75 49.16 591.35 49.56C590.94 49.96 590.74 50.66 590.74 51.65V59.67C590.74 60.66 590.94 61.36 591.35 61.76C591.75 62.16 592.45 62.37 593.44 62.37Z" fill="#00409D"/>
<path d="M629.06 62.16H641.45V67.16H623.39V44.14H629.05V62.16H629.06Z" fill="#00409D"/>
<path d="M644.74 44.14H650.47V67.16H644.74V44.14Z" fill="#00409D"/>
<path d="M655.15 67.16V44.14H670.3C672.87 44.14 674.83 44.81 676.19 46.15C677.54 47.49 678.21 49.45 678.21 52.04V59.28C678.21 61.87 677.54 63.83 676.19 65.17C674.84 66.51 672.88 67.18 670.3 67.18H655.15V67.16ZM660.81 62.37H669.11C671.4 62.37 672.54 61.23 672.54 58.94V52.37C672.54 50.09 671.39 48.94 669.11 48.94H660.81V62.36V62.37Z" fill="#00409D"/>
<path d="M682.61 44.14H688.34V67.16H682.61V44.14Z" fill="#00409D"/>
<path d="M1005.95 236.65V234.95H1011.23V235.69C1011.23 236.11 1011.31 236.4 1011.47 236.57C1011.62 236.74 1011.91 236.81 1012.34 236.81H1017.37C1017.79 236.81 1018.08 236.73 1018.25 236.57C1018.41 236.42 1018.48 236.12 1018.48 235.69V235.06C1018.48 234.64 1018.41 234.35 1018.26 234.21C1018.11 234.07 1017.81 233.97 1017.37 233.95L1010.22 233.32C1008.8 233.18 1007.78 232.82 1007.15 232.23C1006.53 231.64 1006.22 230.67 1006.22 229.32V226.94C1006.22 225.56 1006.54 224.54 1007.2 223.9C1007.85 223.26 1008.86 222.94 1010.22 222.94H1019.6C1020.97 222.94 1021.97 223.26 1022.63 223.9C1023.28 224.54 1023.6 225.56 1023.6 226.94V228.39H1018.33V227.89C1018.33 227.47 1018.25 227.18 1018.09 227.01C1017.93 226.86 1017.65 226.77 1017.21 226.77H1012.8C1012.39 226.77 1012.09 226.85 1011.93 227.01C1011.76 227.16 1011.69 227.47 1011.69 227.89V228.22C1011.69 228.62 1011.77 228.9 1011.93 229.06C1012.08 229.21 1012.37 229.31 1012.8 229.34L1019.95 229.97C1021.37 230.08 1022.39 230.44 1023.02 231.03C1023.65 231.62 1023.95 232.59 1023.95 233.96V236.66C1023.95 238.04 1023.63 239.05 1022.98 239.7C1022.32 240.34 1021.32 240.66 1019.95 240.66H1009.96C1008.59 240.66 1007.59 240.34 1006.93 239.7C1006.27 239.06 1005.95 238.04 1005.95 236.66V236.65Z" fill="#00409D"/>
<path d="M1028.68 240.64V235.07H1034.67V240.64H1028.68Z" fill="#00409D"/>
<path d="M1067.75 240.64H1061.82L1058.28 234.94H1055.24V240.64H1049.77V222.94H1062.38C1064 222.94 1065.17 223.3 1065.91 224.03C1066.63 224.75 1067 225.92 1067 227.54V229.94C1067 231.32 1066.75 232.38 1066.23 233.09C1065.71 233.8 1064.9 234.26 1063.79 234.44L1067.77 240.64H1067.75ZM1055.24 226.97V231.06H1060.15C1060.68 231.06 1061.03 230.96 1061.22 230.77C1061.42 230.58 1061.51 230.21 1061.51 229.7V228.34C1061.51 227.81 1061.42 227.46 1061.22 227.27C1061.03 227.08 1060.66 226.98 1060.15 226.98H1055.24V226.97Z" fill="#00409D"/>
<path d="M1071.91 240.64V235.07H1077.89V240.64H1071.91Z" fill="#00409D"/>
<path d="M1097.9 240.64C1096.16 240.64 1094.88 240.22 1094.04 239.4C1093.2 238.58 1092.78 237.28 1092.78 235.53V228.04C1092.78 226.29 1093.2 224.99 1094.04 224.17C1094.88 223.35 1096.16 222.93 1097.9 222.93H1106.16C1107.91 222.93 1109.19 223.35 1110.03 224.17C1110.87 224.99 1111.28 226.29 1111.28 228.04V235.53C1111.28 237.28 1110.87 238.58 1110.03 239.4C1109.19 240.22 1107.91 240.64 1106.16 240.64H1097.9ZM1099.88 236.02H1104.2C1104.78 236.02 1105.2 235.91 1105.45 235.67C1105.69 235.43 1105.81 235.01 1105.81 234.4V229.19C1105.81 228.58 1105.69 228.16 1105.45 227.92C1105.2 227.68 1104.78 227.57 1104.2 227.57H1099.88C1099.27 227.57 1098.85 227.68 1098.61 227.92C1098.38 228.16 1098.27 228.57 1098.27 229.19V234.4C1098.27 235.01 1098.38 235.43 1098.61 235.67C1098.85 235.91 1099.27 236.02 1099.88 236.02Z" fill="#00409D"/>
<path d="M1116.01 240.64V235.07H1122V240.64H1116.01Z" fill="#00409D"/>
<path d="M425.74 105.59H390.87L349.02 205.02H381.48L387.03 189.54H427.87L433.42 205.02H460.53V188.54L425.74 105.59ZM394.7 168.38L407.51 133.15L420.18 168.38H394.7Z" fill="#00409D"/>
<path d="M470.41 205.02V105.59H541.29C550.4 105.59 556.99 107.62 561.07 111.7C565.14 115.77 567.19 122.35 567.19 131.45V150.77C567.19 159.86 565.15 166.44 561.07 170.52C556.98 174.6 550.4 176.63 541.29 176.63H501.16V205.04H470.41V205.02ZM501.17 154.04H528.78C531.72 154.04 533.73 153.5 534.82 152.41C535.91 151.32 536.45 149.3 536.45 146.38V137.01C536.45 134.07 535.91 132.07 534.82 130.98C533.73 129.89 531.71 129.35 528.78 129.35H501.17V154.07V154.04Z" fill="#00409D"/>
<path d="M573.47 205.02V183.85L626.56 131.57H576.32V105.57H671.28V126.63L618.09 179H671.18V205H573.47V205.02Z" fill="#00409D"/>
<path d="M677.91 142.96H718.08V167.68H677.91V142.96Z" fill="#00409D"/>
<path d="M997.74 205.02L992.19 189.53H951.35L945.8 205.02H913.35L955.19 105.59H990.06L1031.76 205.02H997.74ZM959.04 168.38H984.52L971.85 133.15L959.04 168.38Z" fill="#00409D"/>
<path d="M1087.4 105.59H1119.42L1077.16 205.02H1047.27L1005 105.59H1038.59L1063.06 169.51L1087.4 105.59Z" fill="#00409D"/>
<path d="M838.06 105.59V132.72H869.22V195.03C869.22 196.07 869.01 197.09 868.61 198.04L865.67 205.02H869.22H899.96V132.72H929.77L941.19 105.59H838.06Z" fill="#00409D"/>
<path d="M825.82 150.94C822.32 147.62 816.57 145.65 808.6 144.98L768.47 141.43C766.1 141.25 764.47 140.73 763.56 139.87C762.66 139.02 762.21 137.44 762.21 135.16V133.31C762.21 130.94 762.66 129.3 763.56 128.39C764.47 127.5 766.1 127.04 768.47 127.04H801.99V132.72H829.11V105.6H753.96C746.28 105.6 740.61 107.41 736.96 111C733.3 114.61 731.47 120.29 731.47 128.04V141.4C731.47 148.97 733.22 154.42 736.73 157.73C740.23 161.06 745.98 163.1 753.95 163.85L794.08 167.4C796.55 167.59 798.21 168.08 799.06 168.89C799.91 169.7 800.34 171.28 800.34 173.65V177.2C800.34 179.57 799.9 181.2 798.99 182.1C798.08 183.01 796.45 183.45 794.08 183.45H765.89C763.52 183.45 761.89 183.01 760.98 182.1C760.33 181.45 759.92 180.42 759.74 179.01H730.02V182.59V182.55C730.03 190.32 731.86 196 735.52 199.59C739.17 203.2 744.84 205 752.53 205H808.6C816.29 205 821.96 203.2 825.61 199.61C829.27 196.02 831.1 190.33 831.1 182.58V167.4C831.1 159.74 829.32 154.25 825.82 150.94Z" fill="#00409D"/>
</svg>
